<svg fill="#FFFFFF" xmlns="http://www.w3.org/2000/svg"  viewBox="0 0 24 24" width="24px" height="24px"><path d="M 3 4 C 1.898438 4 1.003906 4.898438 1 6 C 0.996094 6.941406 1 8.058594 1 9 C 1 10.105469 1.894531 11 3 11 L 6.03125 11 L 6.03125 11.625 L 1.84375 11.625 C 1.375 11.617188 1.007813 12 1 12.46875 C 0.992188 12.9375 1.378906 13.335938 1.84375 13.34375 L 6 13.34375 C 7.105469 13.34375 7.996094 12.445313 8 11.34375 C 8.003906 9.769531 8 7.574219 8 6 C 8 4.894531 7.105469 4 6 4 Z M 10.5 4 C 9.394531 4 8.5 4.894531 8.5 6 L 8.5 9 C 8.5 10.105469 9.394531 11 10.5 11 L 13.5 11 C 14.605469 11 15.5 10.105469 15.5 9 L 15.5 6 C 15.5 4.894531 14.605469 4 13.5 4 Z M 18 4 C 16.898438 4 16.003906 4.898438 16 6 C 15.996094 6.941406 16 8.058594 16 9 C 16 10.105469 16.894531 11 18 11 L 21.03125 11 L 21 11.625 L 16.84375 11.625 C 16.375 11.617188 16.007813 12 16 12.46875 C 15.992188 12.9375 16.347656 13.335938 16.8125 13.34375 L 21 13.34375 C 22.105469 13.34375 22.996094 12.445313 23 11.34375 C 23.003906 9.769531 23 7.574219 23 6 C 23 4.894531 22.105469 4 21 4 Z M 3 6 L 6 6 L 6 9 L 3 9 Z M 10.5 6 L 13.5 6 L 13.5 9 L 10.5 9 Z M 18 6 L 21 6 L 21 9 L 18 9 Z M 3 14 C 1.894531 14 1 14.894531 1 16 L 1 19 C 1 20.105469 1.894531 21 3 21 L 5 21 C 5.550781 21 6 20.550781 6 20 C 6 19.449219 5.550781 19 5 19 L 3 19 L 3 16 L 5 16 C 5.550781 16 6 15.550781 6 15 C 6 14.449219 5.550781 14 5 14 Z M 9 14 C 7.894531 14 7 14.894531 7 16 L 7 19 C 7 20.105469 7.894531 21 9 21 L 12 21 C 13.105469 21 14 20.105469 14 19 L 14 16 C 14 14.894531 13.105469 14 12 14 Z M 17 14 C 15.894531 14 15 14.894531 15 16 L 15 20 C 15 20.550781 15.449219 21 16 21 C 16.550781 21 17 20.550781 17 20 L 17 16 L 18 16 L 18 20 C 18 20.550781 18.449219 21 19 21 C 19.550781 21 20 20.550781 20 20 L 20 16 L 21 16 L 21 20 C 21 20.550781 21.449219 21 22 21 C 22.550781 21 23 20.550781 23 20 L 23 14 Z M 9 16 L 12 16 L 12 19 L 9 19 Z"/></svg>