<?xml version="1.0" encoding="UTF-8"?>
<svg version="1.1" xmlns="http://www.w3.org/2000/svg" width="100" height="100">
<path d="M0 0 C1.05492142 -0.0127597 2.10984283 -0.02551941 3.19673157 -0.03866577 C4.32701279 -0.04089142 5.45729401 -0.04311707 6.62182617 -0.04541016 C7.79436447 -0.05206696 8.96690277 -0.05872375 10.17497253 -0.06558228 C12.6537418 -0.07569873 15.13253824 -0.08039961 17.61132812 -0.08007812 C21.39067846 -0.08444479 25.16885472 -0.12075958 28.94799805 -0.15869141 C31.36010344 -0.16456113 33.77221437 -0.16852948 36.18432617 -0.17041016 C37.87063896 -0.19196671 37.87063896 -0.19196671 39.59101868 -0.21395874 C47.4087591 -0.16876372 52.80208934 0.96038204 58.84448242 6.25537109 C59.38331055 6.90634766 59.92213867 7.55732422 60.47729492 8.22802734 C61.0315918 8.87642578 61.58588867 9.52482422 62.15698242 10.19287109 C64.93707565 14.22776316 65.85268621 17.82326033 65.89282227 22.68823242 C65.90558197 23.74315384 65.91834167 24.79807526 65.93148804 25.88496399 C65.93371368 27.01524521 65.93593933 28.14552643 65.93823242 29.31005859 C65.94821762 31.06886604 65.94821762 31.06886604 65.95840454 32.86320496 C65.968521 35.34197422 65.97322187 37.82077066 65.97290039 40.29956055 C65.97726706 44.07891088 66.01358184 47.85708714 66.05151367 51.63623047 C66.05738339 54.04833586 66.06135175 56.46044679 66.06323242 58.87255859 C66.07760345 59.99676712 66.09197449 61.12097565 66.10678101 62.2792511 C66.06158598 70.09699152 64.93244023 75.49032176 59.63745117 81.53271484 C58.98647461 82.07154297 58.33549805 82.61037109 57.66479492 83.16552734 C57.01639648 83.71982422 56.36799805 84.27412109 55.69995117 84.84521484 C51.66505911 87.62530807 48.06956193 88.54091863 43.20458984 88.58105469 C42.14966843 88.59381439 41.09474701 88.6065741 40.00785828 88.61972046 C38.87757706 88.62194611 37.74729584 88.62417175 36.58276367 88.62646484 C35.41022537 88.63312164 34.23768707 88.63977844 33.02961731 88.64663696 C30.55084805 88.65675342 28.0720516 88.66145429 25.59326172 88.66113281 C21.81391139 88.66549948 18.03573513 88.70181426 14.2565918 88.73974609 C11.8444864 88.74561582 9.43237548 88.74958417 7.02026367 88.75146484 C5.33395088 88.77302139 5.33395088 88.77302139 3.61357117 88.79501343 C-4.20416926 88.7498184 -9.5974995 87.62067265 -15.63989258 82.32568359 C-16.1787207 81.67470703 -16.71754883 81.02373047 -17.27270508 80.35302734 C-17.82700195 79.70462891 -18.38129883 79.05623047 -18.95239258 78.38818359 C-21.73248581 74.35329153 -22.64809637 70.75779435 -22.68823242 65.89282227 C-22.70099213 64.83790085 -22.71375183 63.78297943 -22.72689819 62.6960907 C-22.72912384 61.56580948 -22.73134949 60.43552826 -22.73364258 59.27099609 C-22.74029938 58.09845779 -22.74695618 56.92591949 -22.7538147 55.71784973 C-22.76393116 53.23908047 -22.76863203 50.76028403 -22.76831055 48.28149414 C-22.77267721 44.50214381 -22.808992 40.72396755 -22.84692383 36.94482422 C-22.85279355 34.53271882 -22.8567619 32.1206079 -22.85864258 29.70849609 C-22.87301361 28.58428757 -22.88738464 27.46007904 -22.90219116 26.30180359 C-22.85699614 18.48406316 -21.72785039 13.09073292 -16.43286133 7.04833984 C-15.78188477 6.50951172 -15.1309082 5.97068359 -14.46020508 5.41552734 C-13.81180664 4.86123047 -13.1634082 4.30693359 -12.49536133 3.73583984 C-8.46046927 0.95574662 -4.86497209 0.04013605 0 0 Z M-12.39770508 10.29052734 C-18.1116149 17.51785112 -18.55353278 24.41105275 -18.56567383 33.34521484 C-18.56900223 34.20559357 -18.57233063 35.06597229 -18.57575989 35.9524231 C-18.58080464 37.76612822 -18.58316897 39.57984255 -18.58300781 41.39355469 C-18.58519256 44.14973433 -18.60336959 46.90551221 -18.62231445 49.66162109 C-18.62524935 51.43115099 -18.6272335 53.20068277 -18.62817383 54.97021484 C-18.63535934 55.78505341 -18.64254486 56.59989197 -18.64994812 57.43942261 C-18.61937095 65.20001962 -17.5666286 72.16943369 -12.39770508 78.29052734 C-5.1703813 84.00443717 1.72282033 84.44635505 10.65698242 84.45849609 C11.51736115 84.46182449 12.37773987 84.46515289 13.26419067 84.46858215 C15.0778958 84.4736269 16.89161013 84.47599124 18.70532227 84.47583008 C21.46150191 84.47801483 24.21727979 84.49619185 26.97338867 84.51513672 C28.74291857 84.51807161 30.51245034 84.52005577 32.28198242 84.52099609 C33.09682098 84.52818161 33.91165955 84.53536713 34.75119019 84.54277039 C42.5117872 84.51219321 49.48120127 83.45945087 55.60229492 78.29052734 C61.31620475 71.06320356 61.75812263 64.17000194 61.77026367 55.23583984 C61.77359207 54.37546112 61.77692047 53.5150824 61.78034973 52.62863159 C61.78539448 50.81492647 61.78775882 49.00121213 61.78759766 47.1875 C61.7897824 44.43132035 61.80795943 41.67554248 61.8269043 38.91943359 C61.82983919 37.1499037 61.83182334 35.38037192 61.83276367 33.61083984 C61.84354195 32.388582 61.84354195 32.388582 61.85453796 31.14163208 C61.82396079 23.38103507 60.77121845 16.41162099 55.60229492 10.29052734 C48.37497114 4.57661752 41.48176952 4.13469964 32.54760742 4.12255859 C31.6872287 4.11923019 30.82684998 4.11590179 29.94039917 4.11247253 C28.12669405 4.10742779 26.31297971 4.10506345 24.49926758 4.10522461 C21.74308793 4.10303986 18.98731006 4.08486283 16.23120117 4.06591797 C14.46167128 4.06298308 12.6921395 4.06099892 10.92260742 4.06005859 C10.10776886 4.05287308 9.2929303 4.04568756 8.45339966 4.0382843 C0.69280265 4.06886148 -6.27661143 5.12160382 -12.39770508 10.29052734 Z " fill="#FFFFFF" transform="translate(28.397705078125,5.70947265625)"/>
<path d="M0 0 C3.12001504 1.68818449 5.39047471 3.78094941 7 7 C8.04817082 17.84108101 8.04817082 17.84108101 5.953125 22.15625 C3.60209072 24.97749113 1.49495435 26.81178632 -2.171875 27.2734375 C-9.99068626 27.58145128 -9.99068626 27.58145128 -13.5625 24.6875 C-17.54700101 20.29433222 -17.27863206 16.33788761 -17.21875 10.6640625 C-16.86703137 6.38063198 -15.34352051 4.18648564 -12.1953125 1.40625 C-8.37023499 -1.04397759 -4.3766166 -0.75815406 0 0 Z M-10 6 C-12.69111169 10.03666753 -12.54821957 13.26304029 -12 18 C-10.56782923 21.01509635 -9.70739331 21.7207658 -6.625 22.9375 C-3.23214991 23.01828215 -1.68299954 22.01224965 1 20 C2.72111336 16.55777329 2.37579844 12.77140579 2 9 C0.65067343 6.30134686 -0.17310014 5.3858866 -2.875 4.125 C-5.73959337 3.95649451 -7.47468197 4.67088525 -10 6 Z " fill="#FFFFFF" transform="translate(49,37)"/>
<path d="M0 0 C3.09851777 1.8074687 4.59108071 2.86760812 5.8125 6.25 C5.874375 6.8275 5.93625 7.405 6 8 C1.74679615 8.35443365 0.32387762 7.49290822 -3 5 C-5.66761764 4.74875174 -5.66761764 4.74875174 -8 5 C-7.92217262 6.95998083 -7.92217262 6.95998083 -7 9 C-4.52486771 10.255842 -4.52486771 10.255842 -1.5625 11.0625 C3.79291553 12.6893733 3.79291553 12.6893733 6 16 C6.59684283 19.92211001 6.3096604 21.52518738 4.125 24.875 C-0.24091101 27.84381949 -3.86394498 27.91775409 -9 27 C-12.125 25.25 -12.125 25.25 -14 23 C-14 21.68 -14 20.36 -14 19 C-11.6875 18.8125 -11.6875 18.8125 -9 19 C-8.525625 19.515625 -8.05125 20.03125 -7.5625 20.5625 C-7.046875 21.036875 -6.53125 21.51125 -6 22 C-2.85078091 21.76716851 -2.85078091 21.76716851 0 21 C0 20.01 0 19.02 0 18 C-0.75925781 17.75765625 -1.51851562 17.5153125 -2.30078125 17.265625 C-3.79158203 16.76289062 -3.79158203 16.76289062 -5.3125 16.25 C-6.29863281 15.92515625 -7.28476563 15.6003125 -8.30078125 15.265625 C-11.26774342 13.87445895 -12.43613818 12.85458338 -14 10 C-13.93600929 6.35252953 -13.76209885 3.98437768 -11.5 1.0625 C-7.66176874 -0.56874829 -4.10094702 -0.665216 0 0 Z " fill="#FFFFFF" transform="translate(74,37)"/>
<path d="M0 0 C1.65 0 3.3 0 5 0 C5 6.6 5 13.2 5 20 C3.35 20 1.7 20 0 20 C0 13.4 0 6.8 0 0 Z " fill="#FFFFFF" transform="translate(21,44)"/>
<path d="M0 0 C1.65 0 3.3 0 5 0 C4.67 1.65 4.34 3.3 4 5 C2.35 4.67 0.7 4.34 -1 4 C-0.67 2.68 -0.34 1.36 0 0 Z " fill="#FFFFFF" transform="translate(21,36)"/>
</svg>
