<?xml version="1.0" encoding="UTF-8" standalone="no"?>
<!-- Generator: Adobe Illustrator 15.1.0, SVG Export Plug-In  -->

<svg
   version="1.1"
   x="0px"
   y="0px"
   width="800px"
   height="230px"
   viewBox="-48.423 -13.517 800 230"
   enable-background="new -48.423 -13.517 800 230"
   xml:space="preserve"
   id="svg1"
   sodipodi:docname="psVita.svg"
   inkscape:version="1.4.2 (f4327f4, 2025-05-13)"
   xmlns:inkscape="http://www.inkscape.org/namespaces/inkscape"
   xmlns:sodipodi="http://sodipodi.sourceforge.net/DTD/sodipodi-0.dtd"
   xmlns="http://www.w3.org/2000/svg"
   xmlns:svg="http://www.w3.org/2000/svg"><sodipodi:namedview
   id="namedview1"
   pagecolor="#ffffff"
   bordercolor="#000000"
   borderopacity="0.25"
   inkscape:showpageshadow="2"
   inkscape:pageopacity="0.0"
   inkscape:pagecheckerboard="0"
   inkscape:deskcolor="#d1d1d1"
   inkscape:zoom="1.11"
   inkscape:cx="376.57658"
   inkscape:cy="200.45045"
   inkscape:window-width="1920"
   inkscape:window-height="1017"
   inkscape:window-x="-8"
   inkscape:window-y="-8"
   inkscape:window-maximized="1"
   inkscape:current-layer="svg1" />
<defs
   id="defs1">
</defs>
<path
   id="path1"
   d="M 574.39536,5.78125e-4 459.53403,0.07675 v 13.970703 l 45.38867,0.07227 V 114.60214 h 23.91016 l -0.084,-100.591796 45.59375,0.123047 z M 623.18637,0.12167188 C 613.59339,-0.39632813 607.64905,10.246766 605.57505,13.617766 c -2.075,3.369 -54.17969,102.013674 -54.17969,102.013674 h 16.71875 l 12.69336,-24.302737 73.52539,0.02539 13.12109,24.277346 h 26.76563 c 0,0 -53.80224,-101.469081 -55.61524,-104.580081 -1.816,-3.1109948 -5.82695,-10.41168712 -15.41797,-10.92968712 z M 261.85239,0.32284375 c 0,0 53.69777,101.27390625 55.50977,104.37890625 1.811,3.104 5.81384,10.3902 15.38671,10.9082 9.57401,0.518 15.50808,-10.1067 17.58008,-13.4707 2.07,-3.363 54.07624,-101.81640625 54.07617,-101.81640625 h -16.6875 c 0,0 -41.91418,78.52973425 -44.24218,82.92773425 -2.847,5.434 -8.1185,4.286906 -10.4375,-0.371094 L 288.56723,0.32284375 Z m -61.67578,0.14648438 c -23.762,0 -31.87891,14.42171887 -31.87891,31.13671887 V 84.0455 c 0,9.504 -5.48315,16.95898 -14.66015,16.95898 h -44.8418 v 14.17774 h 51.39453 c 23.926,0 32.55859,-11.96272 32.55859,-31.13672 V 31.606047 c 5e-5,-7.702 2.38255,-17.471078 14.31055,-16.955078 h 44.16016 V 0.46932813 Z M 8.28125e-4,0.47128125 V 14.649016 H 84.971531 c 13.127,-1.036 16.898439,9.254968 16.898439,16.792968 0,9.833 -3.254439,16.604047 -16.898439,17.123047 H 29.332859 c -17.206,0 -29.332030875,13.030188 -29.332030875,32.367188 V 115.34433 H 23.744969 V 79.621672 c 0,-9.832 5.570375,-15.568359 13.109375,-15.568359 h 55 c 24.088996,0 33.593746,-13.272376 33.593746,-32.609375 0,-17.044 -9.50475,-30.97265675 -33.593746,-30.97265675 z M 419.67075,0.70760938 V 115.25448 h 24.3125 V 0.70760938 Z M 617.49692,28.916594 c 2.09565,0.0327 4.16381,1.518703 5.39844,3.998047 l 23.84375,44.107422 -57.96484,-0.0039 c 0,0 22.47701,-42.229562 23.66601,-44.476562 1.33688,-2.551407 3.20754,-3.653857 5.05664,-3.625 z"
   style="fill:#ffffff" />
</svg>
